<?xml version="1.0" encoding="UTF-8"?>
<svg version="1.1" xmlns="http://www.w3.org/2000/svg" width="512" height="512">
<path d="M0 0 C4.93097044 3.82421956 8.3036084 7.91294777 10 14 C10.84747586 23.02665863 9.06790079 30.5143423 6.1680603 39.00616455 C5.75008641 40.27250777 5.33368343 41.53937036 4.91869986 42.80669665 C3.7833889 46.2585164 2.62599954 49.70256559 1.46456933 53.14566994 C0.2121855 56.87139912 -1.01933455 60.60402357 -2.25360107 64.33578491 C-4.6708795 71.63315616 -7.10740222 78.92395885 -9.55087216 86.21259645 C-11.53681082 92.13778492 -13.51544618 98.06536598 -15.48893356 103.99471283 C-15.77028807 104.84003771 -16.05164258 105.68536258 -16.34152298 106.55630337 C-16.9131226 108.27379445 -17.48470214 109.99129222 -18.05626182 111.70879659 C-23.41026564 127.79465375 -28.78580842 143.87324712 -34.16911428 159.94931778 C-38.78453947 173.73379162 -43.382809 187.52388726 -47.96826172 201.31835938 C-53.29847494 217.35325247 -58.63827769 233.38489487 -63.9941076 249.41125178 C-64.56547063 251.12101516 -65.13682541 252.8307813 -65.70817184 254.54055023 C-65.98926682 255.38170242 -66.27036179 256.22285462 -66.5599748 257.08949627 C-68.53719243 263.0082274 -70.50767649 268.9291751 -72.47563553 274.8509903 C-74.87471933 282.06934205 -77.28463682 289.28396921 -79.70831044 296.49410346 C-80.94387908 300.17061534 -82.17467742 303.84853859 -83.39247513 307.53097916 C-84.7141071 311.52682653 -86.0589429 315.51447554 -87.40615845 319.50177002 C-87.97525796 321.24048303 -87.97525796 321.24048303 -88.55585444 323.01432157 C-91.10479267 330.47158357 -94.07435524 336.91602376 -100.38671875 341.875 C-107.58836085 345.39634622 -113.91695939 346.5329805 -121.70703125 344.18359375 C-129.08200489 341.01025427 -132.49853982 336.00292036 -136 329 C-136.84914683 319.58087296 -135.20137482 311.73377059 -132.1680603 302.87358093 C-131.74995955 301.60641617 -131.33356168 300.33868852 -130.91869986 299.07045966 C-129.78470742 295.62043229 -128.6268496 292.17884747 -127.46456933 288.73826444 C-126.21108264 285.0136005 -124.98023254 281.281457 -123.74639893 277.55024719 C-121.33033127 270.25594033 -118.89347117 262.96874729 -116.44912784 255.68387332 C-113.60077948 247.19279753 -110.77204717 238.69522851 -107.94373818 230.19746134 C-102.89577207 215.03326584 -97.82827416 199.87566869 -92.75048828 184.72143555 C-87.82736766 170.02878193 -82.92093503 155.33068631 -78.03173828 140.62670898 C-72.70155624 124.59655771 -67.36186275 108.56963322 -62.0058924 92.54807788 C-61.4345315 90.83889106 -60.86317673 89.12970219 -60.29182816 87.42051125 C-60.01073318 86.57965404 -59.72963821 85.73879684 -59.4400252 84.87245911 C-57.46291121 78.9561876 -55.4924181 73.03773525 -53.52436447 67.11844444 C-51.12533759 59.9037555 -48.71541288 52.69281493 -46.29168956 45.48638334 C-45.05613207 41.81188751 -43.82533348 38.13598301 -42.60752487 34.45556259 C-41.28589291 30.46195509 -39.94106004 26.47654966 -38.59384155 22.49150085 C-38.21444188 21.33304096 -37.8350422 20.17458107 -37.44414556 18.98101634 C-34.77791001 11.18506241 -31.68752475 3.95735419 -24.375 -0.4375 C-16.46411364 -4.09994739 -7.70998826 -4.44384252 0 0 Z " fill="#38B549" transform="translate(319,85)"/>
<path d="M0 0 C2.72153055 2.57479171 5.37681748 5.20822123 8.01364899 7.86891937 C9.03213321 8.88197506 10.05146457 9.89417968 11.07157135 10.9056015 C13.82445729 13.64033821 16.56464295 16.38747252 19.30209827 19.13764477 C22.17697314 22.02269095 25.06164546 24.89791484 27.9447403 27.77474213 C32.7835197 32.60625714 37.61383369 37.44611512 42.43943024 42.29079437 C48.00786449 47.88099495 53.59056181 53.45664005 59.18088555 59.02494407 C63.99186596 63.81773606 68.79496184 68.61832486 73.59162879 73.42544198 C76.45140233 76.29143152 79.31376189 79.15469787 82.18327332 82.01094055 C84.88138942 84.69744864 87.56943141 87.39365611 90.25021362 90.09745789 C91.23195003 91.084455 92.21705363 92.06811679 93.20584869 93.0480423 C104.89044633 104.63750211 104.89044633 104.63750211 106.11814117 113.62770844 C106.09880524 114.78013031 106.0794693 115.93255219 106.05954742 117.11989594 C106.05761383 118.85626312 106.05761383 118.85626312 106.05564117 120.62770844 C105.30174678 126.48227575 102.48102599 130.50050569 98.53452301 134.75885773 C97.73511795 135.62256674 96.93571289 136.48627575 96.11208344 137.37615776 C92.13353787 141.56034188 88.09852959 145.6823961 84.02243805 149.77150726 C83.10899124 150.69152527 82.19554443 151.61154327 81.25441742 152.55944061 C78.26585447 155.56873807 75.27223778 158.57298125 72.27829742 161.57692719 C71.23927093 162.62001026 70.20027479 163.66312357 69.16130829 164.7062664 C64.28423067 169.60231424 59.40480039 174.49600217 54.52242231 179.38676435 C48.91427581 185.00470632 43.31453656 190.63085962 37.72167253 196.26401502 C33.37515914 200.64075056 29.02093818 205.00972241 24.6609416 209.37302607 C22.06639048 211.96991696 19.47518676 214.5699439 16.89214325 217.1782856 C14.01304728 220.08513421 11.11813312 222.97572654 8.2216568 225.86525726 C7.37983353 226.71989059 6.53801025 227.57452393 5.67067719 228.45505524 C-0.10728653 234.18278656 -5.87224435 239.27775703 -14.10842133 240.58864594 C-15.24924164 240.55770844 -16.39006195 240.52677094 -17.56545258 240.49489594 C-18.71400726 240.48458344 -19.86256195 240.47427094 -21.04592133 240.46364594 C-26.75205119 239.66090785 -31.23148869 236.92312488 -35.37795258 232.99489594 C-39.88059037 226.52802017 -41.00747544 220.71618655 -40.37795258 212.99489594 C-37.27170827 198.41944187 -18.85110445 185.33702308 -8.67873383 175.19802094 C-6.99029679 173.5114531 -5.30208345 171.82466129 -3.61408234 170.13765717 C0.79108135 165.73627918 5.19924158 161.3379147 9.60807037 156.94020844 C14.12173352 152.4368451 18.63250417 147.93058649 23.1435318 143.42458344 C31.96690311 134.61187966 40.79344839 125.80236234 49.62204742 116.99489594 C45.18447484 111.67207161 40.48987651 106.75122585 35.55295563 101.89162445 C34.76685913 101.11341339 33.98076263 100.33520233 33.17084503 99.53340912 C31.47439408 97.8540749 29.7769094 96.17578442 28.07849312 94.49843788 C24.46461006 90.92677939 20.86015905 87.34566583 17.25511456 83.76508999 C10.55328359 77.10891788 3.84801375 70.45632457 -2.87429047 63.82082367 C-7.56092837 59.19459711 -12.23427447 54.55520765 -16.90020943 49.90808678 C-18.67668133 48.1433458 -20.45767627 46.38314564 -22.24328423 44.62764931 C-24.73956916 42.17242327 -27.21982462 39.70200208 -29.69704437 37.22756195 C-30.4342421 36.50991165 -31.17143982 35.79226135 -31.93097687 35.05286407 C-36.92188033 30.0219437 -39.6261361 25.65320979 -40.77639008 18.52614594 C-40.68044801 10.21116706 -38.43092536 3.91335822 -32.37795258 -2.00510406 C-21.55291744 -8.87779371 -9.97379814 -8.40996721 0 0 Z " fill="#38B549" transform="translate(374.3779525756836,139.0051040649414)"/>
<path d="M0 0 C5.04243869 4.34765591 7.97143586 9.73915823 9.00390625 16.30859375 C9.31181972 23.47006502 7.42071007 29.05050481 2.82181549 34.6007843 C0.66602092 36.88657666 -1.54405878 39.10148614 -3.78613281 41.30273438 C-4.62552399 42.14270966 -5.46491516 42.98268494 -6.32974243 43.84811401 C-8.61568645 46.13176137 -10.91020928 48.40632942 -13.2089777 50.67705345 C-15.61582368 53.05876464 -18.01122321 55.45193384 -20.40789795 57.84387207 C-24.94010275 62.3636824 -29.48239956 66.87320571 -34.02847934 71.3790555 C-39.20690606 76.51265424 -44.37387584 81.6577196 -49.53994989 86.80374432 C-60.15983384 97.38190397 -70.79390604 107.94569329 -81.4375 118.5 C-77.08445044 123.71137802 -72.50385844 128.55687331 -67.67553711 133.32788086 C-66.92191391 134.07683121 -66.16829071 134.82578156 -65.39183044 135.59742737 C-63.76583392 137.21297485 -62.13874292 138.82742138 -60.51066399 140.44087029 C-57.93071032 142.99868427 -55.35484379 145.56054788 -52.78016663 148.12367249 C-45.46306374 155.40728878 -38.14185838 162.68674021 -30.81030273 169.95581055 C-26.3165432 174.411848 -21.83019132 178.87523021 -17.34845161 183.34335518 C-15.64444494 185.03932977 -13.9376698 186.73252765 -12.2280407 188.4228344 C-9.83506506 190.78922474 -7.45163414 193.16485916 -5.07006836 195.54272461 C-4.3681134 196.23232269 -3.66615845 196.92192078 -2.94293213 197.63241577 C3.45609031 204.05762881 8.61025642 210.37938087 8.8125 219.75 C8.73469581 225.66311832 6.96953199 230.17298555 3.9375 235.1875 C-2.63212647 241.58424156 -8.63907032 243.0600349 -17.71484375 243.26171875 C-27.71483292 241.21555098 -34.8499701 233.65971016 -41.78076172 226.64257812 C-42.76996727 225.6555238 -43.76003939 224.6693373 -44.75090027 223.6839447 C-47.41463719 221.02981808 -50.06584205 218.36350038 -52.71455145 215.69438744 C-55.49936319 212.8918801 -58.29484446 210.10005085 -61.08889771 207.3067627 C-65.77412483 202.6196689 -70.45157887 197.92493238 -75.12402344 193.22509766 C-80.5172085 187.80041355 -85.92082452 182.38630268 -91.33051288 176.97807932 C-97.10783144 171.20211373 -102.87750291 165.41855546 -108.64495707 159.63274193 C-110.30074112 157.97270651 -111.95793173 156.31408648 -113.61544418 154.65577698 C-116.22218892 152.04701639 -118.82374925 149.43318975 -121.42145729 146.81543159 C-122.82479768 145.40350977 -124.23297613 143.99640172 -125.64131165 142.58946228 C-132.75437385 135.4042442 -137.53418402 130.31933048 -137.75 119.8125 C-137.78738281 118.63300781 -137.82476562 117.45351562 -137.86328125 116.23828125 C-136.75403639 106.4993149 -130.20317375 100.68853711 -123.56347656 94.10839844 C-122.55042087 93.08991421 -121.53821626 92.07058286 -120.52679443 91.05047607 C-117.79205773 88.29759013 -115.04492341 85.55740447 -112.29475117 82.81994915 C-109.40970499 79.94507429 -106.5344811 77.06040197 -103.65765381 74.17730713 C-98.8261388 69.33852772 -93.98628082 64.50821373 -89.14160156 59.68261719 C-83.55140098 54.11418293 -77.97575588 48.53148561 -72.40745187 42.94116187 C-67.61465988 38.13018146 -62.81407107 33.32708558 -58.00695395 28.53041863 C-55.14096441 25.6706451 -52.27769806 22.80828554 -49.42145538 19.93877411 C-46.73494729 17.24065801 -44.03873982 14.55261601 -41.33493805 11.8718338 C-40.34794094 10.89009739 -39.36427914 9.90499379 -38.38435364 8.91619873 C-27.72436226 -1.83130047 -14.506016 -9.73502595 0 0 Z " fill="#38B44A" transform="translate(169.4375,136.5)"/>
</svg>
